<?xml version="1.0" encoding="iso-8859-1"?>
<!-- Generator: Adobe Illustrator 19.0.0, SVG Export Plug-In . SVG Version: 6.00 Build 0)  -->
<svg version="1.1" id="Layer_1" xmlns="http://www.w3.org/2000/svg" xmlns:xlink="http://www.w3.org/1999/xlink" x="0px" y="0px"
	 viewBox="0 0 512 512" style="enable-background:new 0 0 512 512;" xml:space="preserve">
<path style="fill:#FCF6D6;" d="M487.852,87.326H24.148C10.812,87.326,0,98.137,0,111.473v289.053
	c0,13.336,10.812,24.148,24.148,24.148h463.705c13.336,0,24.148-10.812,24.148-24.148V111.473
	C512,98.137,501.188,87.326,487.852,87.326z"/>
<path style="fill:#EDB529;" d="M487.852,102.999c4.673,0,8.474,3.801,8.474,8.474v289.053c0,4.673-3.801,8.474-8.474,8.474H24.148
	c-4.673,0-8.474-3.801-8.474-8.474V111.473c0-4.673,3.801-8.474,8.474-8.474H487.852 M487.852,87.326H24.148
	C10.812,87.326,0,98.137,0,111.473v289.053c0,13.336,10.812,24.148,24.148,24.148h463.705c13.336,0,24.148-10.812,24.148-24.148
	V111.473C512,98.137,501.188,87.326,487.852,87.326L487.852,87.326z"/>
<rect x="35.798" y="120.759" style="fill:#1E9FE0;" width="191.206" height="45.451"/>
<g>
	<rect x="284.996" y="120.759" style="fill:#EA5149;" width="191.206" height="45.451"/>
	<path style="fill:#EA5149;" d="M373.302,295.553h-18.155v-29.874h18.155c8.425,0,14.955-1.666,19.59-4.999
		c4.634-3.332,6.952-8.024,6.952-14.075c0-6.357-2.318-11.317-6.952-14.879c-4.635-3.562-11.165-5.343-19.59-5.343
		c-6.436,0-13.329,0.805-20.682,2.413c-7.354,1.608-14.977,3.946-22.865,7.008v-30.793c7.889-2.374,15.664-4.194,23.325-5.459
		c7.658-1.263,15.012-1.895,22.061-1.895c18.078,0,32.172,3.946,42.283,11.835c10.111,7.89,15.168,18.768,15.168,32.631
		c0,10.189-2.912,18.519-8.732,24.991c-5.823,6.473-14.133,10.705-24.933,12.697c12.255,2.145,21.602,7.028,28.036,14.649
		c6.433,7.623,9.651,17.637,9.651,30.046c0,16.623-5.324,29.3-15.97,38.032c-10.649,8.732-26.122,13.099-46.421,13.099
		c-8.656,0-17.177-0.729-25.564-2.183c-8.388-1.454-16.413-3.562-24.071-6.32v-31.483c7.199,3.602,14.973,6.339,23.324,8.216
		c8.349,1.878,17.121,2.815,26.313,2.815c9.192,0,16.469-2.125,21.831-6.377c5.361-4.252,8.043-9.977,8.043-17.177
		c0-8.808-2.681-15.608-8.043-20.395C390.689,297.948,383.107,295.553,373.302,295.553z"/>
</g>
<path style="fill:#1E9FE0;" d="M113.593,342.432h72.272v29.874H76.939v-28.955l18.384-19.533
	c21.831-23.209,35.083-37.494,39.755-42.858c5.745-6.587,9.882-12.427,12.41-17.522c2.527-5.093,3.791-10.129,3.791-15.11
	c0-7.658-2.318-13.575-6.952-17.752c-4.635-4.173-11.202-6.262-19.705-6.262c-6.051,0-12.85,1.207-20.395,3.62
	c-7.545,2.413-15.415,5.917-23.612,10.513v-31.598c8.197-2.987,16.22-5.265,24.072-6.837c7.851-1.568,15.377-2.355,22.577-2.355
	c18.154,0,32.42,4.233,42.8,12.697c10.378,8.465,15.568,20.013,15.568,34.643c0,6.742-1.131,13.06-3.39,18.958
	c-2.26,5.899-6.147,12.449-11.662,19.648c-4.06,5.21-15.206,16.93-33.435,35.16C127.265,328.644,119.413,336.535,113.593,342.432z"
	/>
<g>
	<circle style="fill:#4D4D4D;" cx="256" cy="253.232" r="17.463"/>
	<circle style="fill:#4D4D4D;" cx="256" cy="326.897" r="17.463"/>
</g>
<g>
</g>
<g>
</g>
<g>
</g>
<g>
</g>
<g>
</g>
<g>
</g>
<g>
</g>
<g>
</g>
<g>
</g>
<g>
</g>
<g>
</g>
<g>
</g>
<g>
</g>
<g>
</g>
<g>
</g>
</svg>
